<svg xmlns="http://www.w3.org/2000/svg" width="96" height="96" viewBox="0 0 96 96" fill="none">
<defs>
<clipPath id="t-why"><rect width="96" height="96" rx="20"/></clipPath>
<g id="s-why" fill="#000"><circle cx="48" cy="48" r="31"/></g>
</defs>
<rect width="96" height="96" rx="20" fill="#8E63C4"/>
<g clip-path="url(#t-why)" opacity="0.16"><use href="#s-why" x="2" y="2"/><use href="#s-why" x="4" y="4"/><use href="#s-why" x="6" y="6"/><use href="#s-why" x="8" y="8"/><use href="#s-why" x="10" y="10"/><use href="#s-why" x="12" y="12"/><use href="#s-why" x="14" y="14"/><use href="#s-why" x="16" y="16"/><use href="#s-why" x="18" y="18"/><use href="#s-why" x="20" y="20"/><use href="#s-why" x="22" y="22"/><use href="#s-why" x="24" y="24"/><use href="#s-why" x="26" y="26"/><use href="#s-why" x="28" y="28"/><use href="#s-why" x="30" y="30"/><use href="#s-why" x="32" y="32"/><use href="#s-why" x="34" y="34"/><use href="#s-why" x="36" y="36"/><use href="#s-why" x="38" y="38"/><use href="#s-why" x="40" y="40"/><use href="#s-why" x="42" y="42"/><use href="#s-why" x="44" y="44"/><use href="#s-why" x="46" y="46"/><use href="#s-why" x="48" y="48"/><use href="#s-why" x="50" y="50"/><use href="#s-why" x="52" y="52"/><use href="#s-why" x="54" y="54"/><use href="#s-why" x="56" y="56"/><use href="#s-why" x="58" y="58"/><use href="#s-why" x="60" y="60"/><use href="#s-why" x="62" y="62"/><use href="#s-why" x="64" y="64"/><use href="#s-why" x="66" y="66"/><use href="#s-why" x="68" y="68"/><use href="#s-why" x="70" y="70"/><use href="#s-why" x="72" y="72"/></g>
<circle cx="48" cy="48" r="31" fill="#FFFFFF"/>
<path d="M38.5 39.5a10.5 10.5 0 1 1 14 9.9c-2.7 1-4 3-4 5.6v1.5" stroke="#2E4A7D" stroke-width="8" stroke-linecap="round" fill="none"/>
<circle cx="48.5" cy="65" r="5" fill="#F5A623"/>
</svg>
